<svg width="701" height="600" viewBox="0 0 701 600" fill="none" xmlns="http://www.w3.org/2000/svg">
<path d="M127.255 268.202L112.128 272.984C111.076 273.317 110.242 274.191 109.898 275.321L104.948 291.572C104.081 294.418 100.587 294.948 99.0355 292.47L90.175 278.317C89.5588 277.333 88.5357 276.741 87.4405 276.735L71.6861 276.641C68.9268 276.625 67.383 273.178 69.0724 270.808L78.7228 257.279C79.3935 256.338 79.5957 255.098 79.2633 253.964L74.4769 237.657C73.6382 234.801 76.1792 232.139 78.7756 233.154L93.6012 238.945C94.6316 239.348 95.7797 239.174 96.6694 238.48L109.465 228.494C111.707 226.746 114.821 228.547 114.734 231.544L114.246 248.654C114.211 249.843 114.718 250.975 115.601 251.68L128.296 261.817C130.52 263.59 129.905 267.365 127.255 268.202Z" fill="url(#paint0_linear)"/>
<path d="M474.122 567.88C402.83 567.88 345.036 558.962 345.036 547.962C345.036 536.961 402.83 528.044 474.122 528.044C545.414 528.044 603.208 536.961 603.208 547.962C603.208 558.962 545.414 567.88 474.122 567.88Z" fill="#D2D9FF"/>
<path d="M543.571 557.733C456.878 557.733 386.599 553.358 386.599 547.962C386.599 542.566 456.878 538.191 543.571 538.191C630.265 538.191 700.543 542.566 700.543 547.962C700.543 553.358 630.265 557.733 543.571 557.733Z" fill="#D2D9FF"/>
<g opacity="0.5">
<path d="M72.2024 464.421L170.712 552.277C171.238 552.672 172.29 552.277 173.211 551.225C174.132 550.173 174.526 548.989 174 548.594L75.4904 460.738C74.9643 460.343 73.9121 460.738 72.9915 461.79C72.0708 462.711 71.6763 464.026 72.2024 464.421Z" fill="#D2D9FF"/>
<path d="M53 441.931L53.5261 442.457C53.5261 442.588 57.6033 477.442 90.3522 475.732L90.6152 475.863C88.5109 443.246 53 441.931 53 441.931Z" fill="#D2D9FF"/>
<path d="M118.629 435.091L118.366 435.749C118.235 435.749 87.064 451.795 99.9531 481.913V482.308C129.809 468.892 118.629 435.091 118.629 435.091Z" fill="#D2D9FF"/>
<path d="M98.901 482.702L98.2434 483.097C98.1119 483.097 63.3902 478.362 56.8141 510.453L56.551 510.716C88.7738 516.766 98.901 482.702 98.901 482.702Z" fill="#D2D9FF"/>
<path d="M138.357 453.11L138.094 453.767C137.963 453.767 106.792 469.813 119.681 499.932V500.326C149.537 486.911 138.357 453.11 138.357 453.11Z" fill="#D2D9FF"/>
<path d="M118.498 500.721L117.84 501.115C117.709 501.115 82.9871 496.38 76.411 528.472L76.1479 528.735C108.502 534.785 118.498 500.721 118.498 500.721Z" fill="#D2D9FF"/>
<path d="M163.741 477.31L163.478 477.967C163.347 477.967 132.176 494.013 145.065 524.131V524.526C174.921 511.111 163.741 477.31 163.741 477.31Z" fill="#D2D9FF"/>
<path d="M144.013 524.921L143.355 525.315C143.224 525.315 108.502 520.581 101.926 552.672L101.663 552.935C133.886 558.985 144.013 524.921 144.013 524.921Z" fill="#D2D9FF"/>
</g>
<path opacity="0.5" d="M462.229 375.334C462.887 384.67 466.047 394.136 470.918 401.368C466.837 390.849 466.442 379.936 469.075 369.549C484.874 356.926 501.726 347.722 516.735 341.016C515.682 348.643 518.183 356.137 521.343 363.237C521.606 353.113 523.845 344.566 527.794 336.283C548.728 328.131 564 325.37 564 325.37L561.762 327.999C561.762 328.262 562.683 368.234 545.568 410.704C540.433 416.883 534.114 422.011 524.898 423.589C530.559 424.773 535.562 424.115 540.302 422.537C535.562 432.267 529.769 442.129 522.66 451.333C513.18 456.855 500.015 455.672 490.009 449.097C495.538 455.672 502.516 461.72 510.547 465.27C488.297 487.754 456.568 505.11 411.014 509.318L409.566 510.37C404.826 446.205 430.5 403.34 462.229 375.334Z" fill="#A7D269"/>
<path d="M526.551 439.024C521.685 447.419 518.923 457.52 518.923 466.702C521.422 455.159 527.472 445.452 535.889 438.106C556.933 436.27 576.924 438.106 593.89 440.992C588.629 447.026 586.262 455.027 584.947 463.029C591.128 454.503 597.967 448.338 606.253 443.484C629.138 448.6 644 455.027 644 455.027C644 455.027 617.827 491.494 578.239 518.384C570.085 520.745 561.667 521.532 552.724 517.597C557.064 521.926 561.799 524.287 566.665 525.73C556.801 531.502 546.148 536.486 534.574 540.421C523.132 539.634 512.478 531.108 507.48 519.565C508.401 528.353 511.032 537.798 515.898 545.406C483.543 551.965 445.797 548.554 403.841 525.861L402 525.992C435.407 467.095 482.623 444.927 526.551 439.024Z" fill="#A7D269"/>
<path d="M531 204.091C528.239 204.091 526 202.077 526 199.591C526 197.106 528.239 195.091 531 195.091C533.761 195.091 536 197.106 536 199.591C536 202.077 533.761 204.091 531 204.091Z" fill="#FFDB57"/>
<path d="M574.5 226.091C571.462 226.091 569 223.853 569 221.091C569 218.33 571.462 216.091 574.5 216.091C577.538 216.091 580 218.33 580 221.091C580 223.853 577.538 226.091 574.5 226.091Z" fill="#7D89DF"/>
<path d="M653.763 274.854C652.567 348.434 625.224 407.281 591.628 407.281C558.031 407.281 530.688 348.434 529.493 274.854H653.763Z" fill="#FFD15C"/>
<path d="M554.199 466.8C573.297 463.162 584.363 438.523 584.363 408.687C584.363 406.853 584.301 405.049 584.209 403.276H591.628H599.046C598.954 405.049 598.893 406.853 598.893 408.687C598.893 438.554 609.959 463.193 629.056 466.8H591.628H554.199Z" fill="#FFD15C"/>
<path d="M554.199 466.8H629.056V480.678H554.199V466.8Z" fill="#F8B64C"/>
<path d="M551.073 480.678H632.182C640.735 480.678 647.663 487.587 647.663 496.116H535.623C535.623 487.587 542.551 480.678 551.073 480.678Z" fill="#FFD15C"/>
<path d="M547.885 274.854C555.027 333.272 579.213 376.253 607.905 376.253C619.553 376.253 630.466 369.161 639.785 356.841C628.381 387.625 611.062 407.281 591.658 407.281C558.062 407.281 530.719 348.434 529.523 274.854H547.885Z" fill="#F8B64C"/>
<path d="M632.428 373.562C663.204 362.496 687.145 320.158 691.926 267.211H670.469C666.331 280.937 659.955 293.287 651.923 303.589C652.567 297.964 653.058 292.186 653.364 286.317C658.146 278.124 661.916 268.954 664.43 259.08H701C697.659 324.376 666.147 376.711 626.174 384.14C628.351 380.93 630.435 377.384 632.428 373.562Z" fill="#FFD15C"/>
<path d="M550.858 373.562C520.082 362.496 496.141 320.157 491.359 267.211H512.817C516.955 280.937 523.331 293.287 531.362 303.589C530.718 297.964 530.228 292.186 529.921 286.317C525.139 278.124 521.369 268.954 518.855 259.08H482.316C485.596 324.407 517.139 376.742 557.111 384.139C554.935 380.93 552.82 377.384 550.858 373.562Z" fill="#F8B64C"/>
<path d="M528.665 496.116H654.621V547.962H528.665V496.116Z" fill="#F8B64C"/>
<path opacity="0.5" d="M591.627 357.788C607.524 357.788 620.411 344.937 620.411 329.084C620.411 313.23 607.524 300.379 591.627 300.379C575.73 300.379 562.843 313.23 562.843 329.084C562.843 344.937 575.73 357.788 591.627 357.788Z" fill="white"/>
<path d="M580.868 317.07V308.572H596.685V341.037H602.908V349.596H580.316V341.037H586.416V317.07H580.868Z" fill="#FFC291"/>
<path d="M278.8 576.957C184.784 576.957 108.569 563.98 108.569 547.971C108.569 531.962 184.784 518.984 278.8 518.984C372.816 518.984 449.032 531.962 449.032 547.971C449.032 563.98 372.816 576.957 278.8 576.957Z" fill="#D2D9FF"/>
<path d="M167.321 543.244C170.233 543.244 172.083 535.83 172.083 525.478C172.083 516.049 170.199 509.763 167.321 509.763C166.156 509.763 164.889 509.763 163.519 509.763V504.707C163.519 504.707 413.194 504.707 484.725 504.707C488.117 504.707 491.783 511.095 491.783 526.503C491.783 541.399 487.706 548.3 484.246 548.3C404.492 548.3 163.519 548.3 163.519 548.3V543.244C164.855 543.244 166.122 543.244 167.321 543.244Z" fill="#414F6C"/>
<path d="M167.322 543.244C170.234 543.244 172.083 535.83 172.083 525.478C172.083 516.049 170.199 509.763 167.322 509.763C166.157 509.763 164.889 509.763 163.519 509.763V504.707H338.511V548.3H163.519V543.244C164.855 543.244 166.123 543.244 167.322 543.244Z" fill="#232E4D"/>
<path d="M172.084 525.478C172.084 516.049 170.199 509.763 167.322 509.763C241.251 509.763 435.222 509.763 481.985 509.763C484.863 509.763 486.747 516.083 486.747 525.478C486.747 535.83 484.931 543.244 481.985 543.244C430.049 543.244 240.087 543.244 167.322 543.244C170.234 543.244 172.084 535.83 172.084 525.478Z" fill="white"/>
<path d="M172.083 525.478C172.083 516.049 170.199 509.763 167.321 509.763C240.463 509.763 315.523 509.763 342.314 509.763C345.191 509.763 347.075 516.083 347.075 525.478C347.075 535.83 345.26 543.244 342.314 543.244C312.851 543.244 239.024 543.244 167.321 543.244C170.233 543.244 172.083 535.83 172.083 525.478Z" fill="#DADADA"/>
<path d="M150.501 450.18C218.949 450.18 466.123 450.18 466.123 450.18V456.193C465.473 456.193 464.822 456.193 464.171 456.193C459.066 456.193 458.141 468.697 458.141 477.443C458.141 486.189 459.032 498.693 464.171 498.693C464.822 498.693 465.473 498.693 466.123 498.693V504.706C466.123 504.706 220.525 504.706 150.501 504.706C143.923 504.706 143.512 488.683 143.512 477.443C143.512 466.237 143.923 450.18 150.501 450.18Z" fill="#414F6C"/>
<path d="M259.75 450.18C328.198 450.18 466.157 450.18 466.157 450.18V456.193C465.506 456.193 464.855 456.193 464.204 456.193C459.1 456.193 458.175 468.697 458.175 477.443C458.175 486.189 459.066 498.693 464.204 498.693C464.855 498.693 465.506 498.693 466.157 498.693V504.706C466.157 504.706 329.809 504.706 259.75 504.706C253.172 504.706 251.185 488.683 251.185 477.443C251.185 466.237 253.172 450.18 259.75 450.18Z" fill="#293651"/>
<path d="M263.142 456.227C323.642 456.227 447.212 456.227 464.204 456.227C459.1 456.227 458.175 468.731 458.175 477.477C458.175 486.223 459.066 498.727 464.204 498.727C447.315 498.727 325.012 498.727 263.142 498.727C258.003 498.727 257.112 486.223 257.112 477.477C257.112 468.697 258.037 456.227 263.142 456.227Z" fill="#DADADA"/>
<path d="M276.16 498.693C314.564 498.693 410.693 498.693 459.58 498.693H464.17C459.031 498.693 458.141 486.189 458.141 477.443C458.141 474.573 458.243 471.259 458.552 468.15C405.314 463.709 336.318 464.597 300.758 476.623C285.101 481.987 273.865 490.323 276.16 498.693Z" fill="white"/>
<path d="M112.511 582.183C50.373 582.183 4.57764e-05 580.13 4.57764e-05 577.599C4.57764e-05 575.067 50.373 573.014 112.511 573.014C174.649 573.014 225.022 575.067 225.022 577.599C225.022 580.13 174.649 582.183 112.511 582.183Z" fill="#D2D9FF"/>
<path d="M208.547 534.639V577.932H56.129V534.639H208.547Z" fill="#FFD15C"/>
<path d="M208 558.091V578.091H56V534.091C56 534.091 82 549.591 101 554.091C120 558.591 208 558.091 208 558.091Z" fill="#F8B64C"/>
<path d="M11.5498 556.281L56.1405 577.914V534.62L11.5498 556.281Z" fill="#FFE8AE"/>
<path d="M25.8292 549.319L11.5497 556.281L25.8292 563.215V549.319Z" fill="#414F6C"/>
<path d="M208.531 566.656V568.088H56.1132V566.656H208.531Z" fill="white"/>
<path d="M208.535 544.454V545.886H56.1163V544.454H208.535Z" fill="white"/>
<path d="M280.186 599.059C208.432 599.059 150.264 597.109 150.264 594.704C150.264 592.298 208.432 590.349 280.186 590.349C351.939 590.349 410.108 592.298 410.108 594.704C410.108 597.109 351.939 599.059 280.186 599.059Z" fill="#D2D9FF"/>
<path d="M293.086 542.786C293.086 571.639 269.642 595.048 240.681 595.048C238.871 595.048 231.774 595.048 229.964 595.048C201.032 595.048 177.559 571.667 177.559 542.786C177.559 513.905 201.003 490.524 229.964 490.524C231.774 490.524 238.871 490.524 240.681 490.524C269.613 490.524 293.086 513.905 293.086 542.786ZM275.704 542.786C275.704 519.406 258.063 500.123 235.308 497.487C212.582 500.123 194.912 519.406 194.912 542.786C194.912 566.166 212.553 585.449 235.308 588.085C258.063 585.42 275.704 566.166 275.704 542.786Z" fill="url(#paint1_linear)"/>
<path opacity="0.4" d="M235.337 588.4C210.075 588.4 189.597 567.978 189.597 542.786C189.597 517.594 210.075 497.172 235.337 497.172C260.598 497.172 281.077 517.594 281.077 542.786C281.077 567.978 260.598 588.4 235.337 588.4Z" fill="#6382EE"/>
<path d="M282.37 542.786C282.37 571.639 258.925 595.048 229.964 595.048C201.032 595.048 177.559 571.667 177.559 542.786C177.559 513.905 201.003 490.524 229.964 490.524C258.896 490.524 282.37 513.905 282.37 542.786ZM275.704 542.786C275.704 517.601 255.219 497.172 229.964 497.172C204.709 497.172 184.224 517.601 184.224 542.786C184.224 567.971 204.709 588.4 229.964 588.4C255.247 588.4 275.704 567.971 275.704 542.786Z" fill="#293651"/>
<path d="M399.823 594.188L283.663 561.782L286.708 550.407L403.558 580.291L399.823 594.188Z" fill="#414F6C"/>
<path d="M288.547 556.997C287.685 560.178 285.501 562.298 283.663 561.811C281.824 561.295 281.048 558.344 281.881 555.221C282.715 552.098 284.898 549.949 286.737 550.407C288.576 550.866 289.38 553.817 288.547 556.997Z" fill="#414F6C"/>
<path d="M406.689 588.572C405.655 592.44 402.552 594.961 399.822 594.188C397.093 593.443 395.743 589.718 396.777 585.907C397.811 582.097 400.828 579.575 403.557 580.263C406.316 581.008 407.752 584.704 406.689 588.572Z" fill="#73809B"/>
<path opacity="0.75" d="M231.027 505.309C228.039 509.922 234.532 516.512 243.899 522.558C253.265 528.603 261.97 531.784 264.958 527.171C267.946 522.558 263.953 512.1 254.587 506.054C245.22 500.008 234.015 500.696 231.027 505.309Z" fill="white"/>
<path d="M477.36 401.701C410.111 401.701 167.321 401.701 167.321 401.701V407.064C167.972 407.064 168.623 407.064 169.24 407.064C174.276 407.064 175.167 418.168 175.167 425.957C175.167 433.747 174.276 444.85 169.24 444.85C168.623 444.85 167.972 444.85 167.321 444.85V450.214C167.321 450.214 408.569 450.214 477.36 450.214C483.835 450.214 484.212 435.933 484.212 425.957C484.246 415.947 483.835 401.701 477.36 401.701Z" fill="#5D6CD7"/>
<path d="M359.134 401.701C291.885 401.701 167.287 401.701 167.287 401.701V407.064C167.938 407.064 168.589 407.064 169.205 407.064C174.241 407.064 175.132 418.168 175.132 425.957C175.132 433.747 174.241 444.85 169.205 444.85C168.589 444.85 167.938 444.85 167.287 444.85V450.214C167.287 450.214 290.309 450.214 359.134 450.214C365.609 450.214 367.562 435.933 367.562 425.957C367.562 415.947 365.609 401.701 359.134 401.701Z" fill="#4948BD"/>
<path d="M355.811 407.03C296.407 407.03 185.889 407.03 169.24 407.03C174.276 407.03 175.166 418.134 175.166 425.923C175.166 433.713 174.276 444.816 169.24 444.816C185.821 444.816 295.071 444.816 355.811 444.816C360.847 444.816 361.738 433.713 361.738 425.923C361.738 418.168 360.847 407.03 355.811 407.03Z" fill="#DADADA"/>
<path d="M169.24 444.85H346.87C349.679 440.955 347.178 431.15 336.695 427.631C293.701 413.214 224.91 409.251 174.961 420.115C175.098 422.131 175.166 424.112 175.166 425.957C175.132 433.713 174.276 444.85 169.24 444.85Z" fill="white"/>
<path d="M173.659 439.896H353.344C353.344 439.623 353.379 439.315 353.344 439.042H173.899C173.83 439.349 173.762 439.623 173.659 439.896Z" fill="#878787"/>
<path d="M174.755 434.123H352.42C352.317 433.849 352.214 433.542 352.077 433.269H174.824C174.824 433.542 174.79 433.849 174.755 434.123Z" fill="#878787"/>
<path d="M175.132 428.315H349.13C348.891 428.041 348.651 427.734 348.411 427.46H175.166C175.132 427.768 175.132 428.041 175.132 428.315Z" fill="#878787"/>
<path d="M118.64 336.652H510.077C512.475 336.652 514.393 334.739 514.393 332.347V87.9356C514.393 85.5441 512.475 83.6309 510.077 83.6309H118.64C116.242 83.6309 114.323 85.5441 114.323 87.9356V332.347C114.323 334.739 116.242 336.652 118.64 336.652Z" fill="#293651"/>
<path d="M113.056 336.652H504.493C506.891 336.652 508.809 334.739 508.809 332.347V87.9356C508.809 85.5441 506.891 83.6309 504.493 83.6309H113.056C110.658 83.6309 108.739 85.5441 108.739 87.9356V332.347C108.739 334.739 110.692 336.652 113.056 336.652Z" fill="#414F6C"/>
<path d="M116.139 331.117H501.409C502.437 331.117 503.259 330.297 503.259 329.272V91.0104C503.259 89.9855 502.437 89.1655 501.409 89.1655H116.139C115.111 89.1655 114.289 89.9855 114.289 91.0104V329.272C114.323 330.297 115.146 331.117 116.139 331.117Z" fill="white"/>
<path opacity="0.4" d="M130.704 119.494H486.978V279.711H130.704V119.494Z" fill="#98B3FF"/>
<path d="M423.584 289.731H131.173V294.727H423.584V289.731Z" fill="#D6E1FF"/>
<path d="M197.403 299.722H131.173V304.718H197.403V299.722Z" fill="#D6E1FF"/>
<path d="M487.315 299.722H437.33V304.718H487.315V299.722Z" fill="#D6E1FF"/>
<path d="M114.323 319.707H503.259V329.307C503.259 330.298 502.437 331.117 501.444 331.117H116.105C115.111 331.117 114.289 330.298 114.289 329.307V319.707H114.323Z" fill="#293651"/>
<path d="M130.704 104.334H183.428V110.04H130.704V104.334Z" fill="#D6E1FF"/>
<path d="M116.105 89.1997H501.444C502.437 89.1997 503.259 90.0196 503.259 91.0104V97.6724H114.324V91.0104C114.324 89.9855 115.111 89.1997 116.105 89.1997Z" fill="#4948BD"/>
<path d="M429.832 299.722H379.848V304.718H429.832V299.722Z" fill="#D6E1FF"/>
<path d="M337.36 299.722H308.619V304.718H337.36V299.722Z" fill="#D6E1FF"/>
<path d="M369.851 299.722H341.109V304.718H369.851V299.722Z" fill="#D6E1FF"/>
<path d="M366.979 336.652H295.79L297.674 401.701H387.5L366.979 336.652Z" fill="#293651"/>
<path d="M353.664 401.701H205.668V396.132H353.664V401.701Z" fill="#414F6C"/>
<path d="M379.449 396.132L360.642 336.652H289.453L291.166 396.132H379.449Z" fill="url(#paint2_linear)"/>
<path d="M268.257 116.736C290.045 108.024 326.016 107.58 353.732 114.515C377.61 120.494 377.267 137.713 376.822 144.272C374.766 176.387 366.99 279.29 366.99 279.29H256.198C256.198 279.29 241.535 184.996 244.07 143.487C244.79 131.802 240.542 127.839 268.257 116.736Z" fill="#4948BD"/>
<path d="M189.839 247.381L293.642 143.521L278.671 131.017C264.66 120.768 247.496 125.209 231.977 138.601C218.959 149.841 205.495 170.203 200.836 176.695C189.462 192.649 157.157 236.619 157.157 236.619L168.428 246.629C174.902 252.471 184.289 252.779 189.839 247.381Z" fill="#4948BD"/>
<path d="M435.575 257.118C434.342 229.786 421.323 179.12 405.496 151.926C390.011 125.346 359.555 111.988 352.806 118.479C349.038 122.134 349.723 128.386 352.121 136.791C358.973 160.569 390.731 239.728 403.817 256.366C411.149 265.693 418.548 281.784 428.552 274.473C432.766 271.433 436.02 267.367 435.575 257.118Z" fill="#4948BD"/>
<path d="M227.763 207.442H288.846L308.202 279.29H247.154L227.763 207.442Z" fill="white"/>
<path d="M289.771 110.997H292.478C294.67 110.997 296.52 109.391 296.828 107.239C297.479 102.695 298.096 96.1353 298.096 87.8675C298.096 70.5462 295.389 57.0513 295.389 57.0513H334.067V104.676C334.067 108.161 336.911 110.997 340.405 110.997H341.33C341.33 124.56 321.392 132.486 306.695 132.486C291.964 132.486 283.776 120.802 289.771 110.997Z" fill="#F68973"/>
<path d="M393.848 258.894C399.775 264.258 432.629 273.858 438.83 263.677C442.838 257.117 441.433 242.222 438.213 237.712C431.293 227.975 399.706 231.836 390.731 239.762C386.551 243.417 389.052 254.555 393.848 258.894Z" fill="white"/>
<path d="M164.694 216.052C163.871 224.491 186.962 249.806 197.924 245.092C203.817 242.563 214.814 233.954 214.985 228.419C215.362 216.496 190.387 200.029 178.397 198.491C172.916 197.774 165.242 210.517 164.694 216.052Z" fill="white"/>
<path d="M51.2981 153.941C52.1889 151.755 61.6442 160.432 67.0228 164.054C69.4209 165.694 71.8532 165.694 74.5939 165.625C77.8827 165.523 81.3428 165.25 83.7409 165.045C85.4881 164.908 86.6528 164.498 86.5158 163.815C86.3102 162.721 86.276 162.175 84.289 161.252C81.9594 160.159 75.8614 159.066 74.2513 157.802C72.5041 156.435 72.8124 155.889 74.6966 156.128C77.6771 156.503 84.6658 157.118 89.5648 158.724C92.7166 159.749 95.0461 161.662 96.2794 162.585C99.4312 165.01 101.041 167.334 103.234 169.486L195.321 228.59C198.986 230.948 199.808 235.97 197.068 239.352L191.895 245.707C185.557 253.462 173.909 254.077 166.68 247.073C166.68 247.073 115.567 196.544 97.7526 180.316C96.0396 178.779 93.8129 178.369 92.237 177.993C83.4326 175.875 73.018 176.729 68.6329 174.166C63.7682 171.297 50.4074 156.196 51.2981 153.941Z" fill="#F68973"/>
<path d="M283.776 60.1943C283.776 67.3346 285.42 70.7852 287.956 76.2515C292.032 85.0659 296.212 90.7714 303.954 90.7714C316.459 90.7714 330.025 75.6024 330.025 56.9145C330.025 38.2266 319.816 23.0576 303.954 23.0576C289.977 23.0576 286.482 29.5147 285.729 44.5128C285.489 49.3642 283.776 54.6255 283.776 60.1943Z" fill="#F68973"/>
<path d="M344.927 25.4832C343.763 16.703 338.316 10.0068 330.779 12.3641C328.757 6.76119 324.27 3.48142 319.508 1.80737C312.382 -0.68663 299.193 -0.857451 286.894 2.93479C279.871 5.08714 276.753 9.39185 285.386 8.40108C281.755 9.73349 277.37 13.1158 275.109 15.7464C273.019 18.2062 269.628 25.7224 277.336 25.5174C274.629 32.7261 279.802 38.5682 283.845 41.3355C285.284 42.3263 286.037 42.2238 286.14 40.3106C286.483 33.4094 287.682 29.7879 293.369 27.3623C298.747 25.0733 311.012 25.3124 319.268 30.5054C327.798 35.8692 327.73 51.2431 327.079 56.1628C326.839 57.8369 321.221 65.2847 313.684 65.2847C310.224 65.2847 304.263 62.6882 299.741 62.6882C295.561 62.6882 293.745 64.7381 290.525 64.7381C285.695 64.7381 285.729 57.7344 284.77 57.3586C282.68 56.5386 278.021 65.8313 278.021 80.0437C278.021 92.1378 286.894 103.446 297.993 103.446C310.875 103.446 318.857 98.5949 324.749 91.3862C331.841 82.6743 332.903 70.546 331.567 59.4768C334.924 56.7436 338.144 53.0539 339.275 51.0723C343.42 43.7612 346.024 33.751 344.927 25.4832Z" fill="#293651"/>
<path d="M342.666 59.545C341.775 66.0362 336.568 72.3908 333.348 71.4C330.744 70.5801 330.641 66.1045 330.779 59.545C330.916 53.3612 331.738 47.6899 335.643 47.6899C339.549 47.6899 343.728 51.7555 342.666 59.545Z" fill="#DE745F"/>
<path d="M308.305 72.1517C308.305 72.6983 304.845 74.0307 300.597 74.0307C296.349 74.0307 292.888 72.5275 292.888 71.7759C292.888 71.2976 296.349 71.6392 300.597 71.6392C304.845 71.6392 308.305 71.5367 308.305 72.1517Z" fill="white"/>
<path d="M284.598 248.611C285.66 248.884 286.791 248.884 287.853 248.645C294.464 247.176 300.871 246.185 300.871 246.185C300.871 246.185 300.083 245.741 298.987 245.126L297.445 239.42C301.248 239.249 305.187 239.284 308.305 240.582C310.6 241.539 314.197 243.588 317.829 245.194C319.302 245.843 320.878 246.185 322.488 246.253L425.332 250.285C431.909 250.558 436.808 256.434 435.917 262.925C434.444 273.653 424.03 280.828 413.444 278.368C413.444 278.368 346.948 262.584 326.736 258.279C323.447 257.596 318.788 257.562 315.979 258.177C308.099 259.851 296.28 263.472 291.792 262.789C287.476 262.14 279.733 258.723 275.896 256.366C272.745 254.692 268.188 252.676 267.674 250.25C267.469 249.294 266.955 247.586 267.4 246.117C267.88 244.579 278.26 247.039 284.598 248.611Z" fill="#F68973"/>
<path d="M284.358 113.457C285.9 110.621 289.292 108.879 292.238 108.879C295.115 108.879 292.101 109.459 291.073 113.901C289.566 120.255 295.664 126.917 306.01 131.085C314.095 130.026 330.025 117.966 338.35 108.366C338.898 107.717 343.625 106.145 345.304 110.655C349.347 125.653 325.605 140.344 314.746 147.518L305.462 132.999L291.69 143.624C287.305 138.841 283.296 131.051 282.611 124.594C282.2 121.246 282.645 116.566 284.358 113.457Z" fill="white"/>
<path d="M295.458 109.801C311.422 115.438 322.968 103.378 327.798 95.4179C331.327 89.6441 333.588 84.417 334.102 78.4382C334.376 75.3634 334.307 72.2545 334.102 69.1797C333.93 66.7199 333.656 64.2942 333.382 61.9369C333.622 61.7319 333.862 61.561 334.102 61.3902V57.2563C333.314 58.0421 332.457 58.7937 331.601 59.477C332.937 70.5463 331.875 82.6746 324.783 91.3865C318.925 98.5952 310.909 103.447 298.027 103.447C297.788 103.447 297.548 103.447 297.274 103.447C297.137 104.847 296.965 106.145 296.794 107.307C296.657 108.264 296.177 109.152 295.458 109.801Z" fill="#DE745F"/>
<path d="M590.258 151.47L583.318 157.475C582.836 157.893 582.59 158.522 582.66 159.156L583.673 168.278C583.85 169.876 582.119 170.983 580.744 170.152L572.888 165.408C572.341 165.078 571.667 165.038 571.086 165.301L562.724 169.083C561.259 169.745 559.671 168.441 560.036 166.875L562.12 157.938C562.265 157.317 562.094 156.663 561.665 156.191L555.484 149.407C554.401 148.219 555.152 146.305 556.753 146.169L565.898 145.389C566.533 145.335 567.102 144.971 567.418 144.417L571.96 136.442C572.756 135.045 574.807 135.167 575.431 136.648L578.999 145.104C579.247 145.693 579.768 146.121 580.393 146.25L589.381 148.105C590.955 148.429 591.474 150.418 590.258 151.47Z" fill="url(#paint3_linear)"/>
<path d="M136.989 385.048L133.278 384.254C133.02 384.199 132.752 384.275 132.56 384.456L129.803 387.063C129.32 387.52 128.524 387.224 128.455 386.564L128.063 382.79C128.035 382.527 127.881 382.295 127.649 382.169L124.318 380.352C123.734 380.034 123.769 379.185 124.376 378.916L127.844 377.376C128.085 377.269 128.258 377.05 128.307 376.791L129.005 373.062C129.127 372.408 129.945 372.179 130.389 372.673L132.925 375.496C133.101 375.692 133.363 375.789 133.625 375.755L137.387 375.267C138.046 375.181 138.517 375.888 138.184 376.463L136.283 379.747C136.151 379.975 136.14 380.254 136.253 380.493L137.88 383.92C138.166 384.52 137.639 385.186 136.989 385.048Z" fill="url(#paint4_linear)"/>
<path d="M212.535 351.915L213.392 357.995C213.452 358.418 213.716 358.785 214.098 358.975L219.593 361.717C220.556 362.197 220.55 363.572 219.583 364.044L214.065 366.738C213.681 366.925 213.414 367.29 213.351 367.712L212.442 373.785C212.283 374.849 210.973 375.268 210.225 374.495L205.958 370.079C205.661 369.773 205.232 369.631 204.811 369.701L198.754 370.713C197.693 370.891 196.89 369.774 197.394 368.824L200.275 363.401C200.475 363.024 200.477 362.572 200.28 362.194L197.446 356.746C196.95 355.792 197.763 354.683 198.822 354.869L204.87 355.933C205.291 356.007 205.721 355.87 206.02 355.565L210.325 351.186C211.079 350.419 212.385 350.849 212.535 351.915Z" fill="url(#paint5_linear)"/>
<defs>
<linearGradient id="paint0_linear" x1="129.603" y1="265.361" x2="71.1188" y2="255.827" gradientUnits="userSpaceOnUse">
<stop stop-color="#F6D79B"/>
<stop offset="1" stop-color="#FCEDA3"/>
</linearGradient>
<linearGradient id="paint1_linear" x1="235.322" y1="490.524" x2="235.322" y2="595.048" gradientUnits="userSpaceOnUse">
<stop stop-color="#7F8CA7"/>
<stop offset="1" stop-color="#414F6C"/>
</linearGradient>
<linearGradient id="paint2_linear" x1="335.574" y1="397.215" x2="322.649" y2="315.006" gradientUnits="userSpaceOnUse">
<stop offset="0.00793651" stop-color="#293651"/>
<stop offset="1" stop-color="#414F6C"/>
</linearGradient>
<linearGradient id="paint3_linear" x1="590.866" y1="149.515" x2="557.54" y2="158.199" gradientUnits="userSpaceOnUse">
<stop stop-color="#66BB6A"/>
<stop offset="1" stop-color="#A6D472"/>
</linearGradient>
<linearGradient id="paint4_linear" x1="137.785" y1="384.761" x2="126.617" y2="375.93" gradientUnits="userSpaceOnUse">
<stop stop-color="#66BB6A"/>
<stop offset="1" stop-color="#A6D472"/>
</linearGradient>
<linearGradient id="paint5_linear" x1="211.657" y1="350.863" x2="204.442" y2="372.748" gradientUnits="userSpaceOnUse">
<stop stop-color="#849CF9"/>
<stop offset="1" stop-color="#8ABDFD"/>
</linearGradient>
</defs>
</svg>
